<?xml version="1.0" encoding="utf-8"?>
<svg xmlns="http://www.w3.org/2000/svg" viewBox="0 0 26 26" fill="#ffffff"><path d="M 7 0 C 4.789063 0 3 1.789063 3 4 L 3 22 C 3 24.210938 4.789063 26 7 26 L 19 26 C 21.210938 26 23 24.210938 23 22 L 23 4 C 23 1.789063 21.210938 0 19 0 Z M 7 2 L 12 2 L 12 4 L 14 4 L 14 2 L 19 2 C 20.191406 2 21 2.808594 21 4 L 21 22 C 21 23.191406 20.191406 24 19 24 L 7 24 C 5.808594 24 5 23.191406 5 22 L 5 4 C 5 2.808594 5.808594 2 7 2 Z M 12 5 L 12 7 L 14 7 L 14 5 Z M 12 8 L 12 10 L 14 10 L 14 8 Z M 12 11 L 12 12 C 11.398438 12 11 12.398438 11 13 L 11 14 C 11 14.363281 11.160156 14.640625 11.40625 14.8125 C 10.746094 16.332031 10.1875 18.183594 10.1875 19 C 10.1875 20.601563 11.5 21.8125 13 21.8125 C 14.5 21.8125 15.8125 20.5 15.8125 19 C 15.8125 18.183594 15.253906 16.332031 14.59375 14.8125 C 14.839844 14.640625 15 14.363281 15 14 L 15 13 C 15 12.398438 14.601563 12 14 12 L 14 11 Z M 13 17.5 C 13.898438 17.5 14.59375 18.195313 14.59375 19.09375 C 14.59375 19.992188 13.898438 20.6875 13 20.6875 C 12.101563 20.6875 11.40625 19.992188 11.40625 19.09375 C 11.40625 18.195313 12.101563 17.5 13 17.5 Z" fill="#ffffff"/></svg>
