<?xml version="1.0" encoding="utf-8"?>
<svg xmlns="http://www.w3.org/2000/svg" viewBox="0 0 50 50" fill="#ffffff"><path d="M 6 3 L 6 6 L 2 6 L 2 32 L 20 32 L 20 36 L 13.75 36 L 15.25 37.65625 L 23.25 46.625 L 24 47.4375 L 24.75 46.625 L 32.75 37.65625 L 34.25 36 L 28 36 L 28 32 L 46 32 L 46 29 L 49 29 L 49 3 Z M 8 5 L 47 5 L 47 27 L 46 27 L 46 6 L 8 6 Z M 4 8 L 6.3125 8 C 6.097656 8.394531 5.9375 8.773438 5.8125 9.0625 C 5.671875 9.382813 5.519531 9.605469 5.5625 9.5625 C 5.605469 9.519531 5.398438 9.65625 5.09375 9.78125 C 4.792969 9.902344 4.410156 10.035156 4 10.21875 Z M 9.5625 8 L 38.4375 8 C 39.320313 8 39.542969 8.304688 39.875 8.875 C 40.039063 9.160156 40.191406 9.523438 40.34375 9.875 C 40.496094 10.226563 40.617188 10.585938 41 10.96875 C 41.378906 11.347656 41.785156 11.476563 42.15625 11.625 C 42.527344 11.773438 42.875 11.921875 43.1875 12.0625 C 43.5 12.203125 43.761719 12.355469 43.875 12.46875 C 43.988281 12.582031 44 12.609375 44 12.75 L 44 25.25 C 44 25.390625 43.988281 25.417969 43.875 25.53125 C 43.761719 25.644531 43.5 25.796875 43.1875 25.9375 C 42.875 26.078125 42.527344 26.226563 42.15625 26.375 C 41.785156 26.523438 41.378906 26.652344 41 27.03125 C 40.617188 27.414063 40.496094 27.773438 40.34375 28.125 C 40.191406 28.476563 40.039063 28.839844 39.875 29.125 C 39.542969 29.695313 39.320313 30 38.4375 30 L 21.21875 30 C 21.117188 29.972656 21.011719 29.960938 20.90625 29.96875 C 20.875 29.976563 20.84375 29.988281 20.8125 30 L 9.5625 30 C 8.679688 30 8.457031 29.695313 8.125 29.125 C 7.960938 28.839844 7.808594 28.480469 7.65625 28.125 C 7.507813 27.785156 7.382813 27.429688 7.03125 27.0625 L 7 27.03125 C 6.621094 26.652344 6.214844 26.523438 5.84375 26.375 C 5.472656 26.226563 5.125 26.078125 4.8125 25.9375 C 4.5 25.796875 4.238281 25.644531 4.125 25.53125 C 4.011719 25.417969 4 25.390625 4 25.25 L 4 12.75 C 4 12.679688 4.015625 12.632813 4.03125 12.59375 C 4.046875 12.554688 4.066406 12.527344 4.125 12.46875 C 4.238281 12.355469 4.5 12.203125 4.8125 12.0625 C 5.125 11.921875 5.472656 11.773438 5.84375 11.625 C 6.214844 11.476563 6.621094 11.347656 7 10.96875 C 7.382813 10.585938 7.503906 10.230469 7.65625 9.875 C 7.808594 9.519531 7.960938 9.160156 8.125 8.875 C 8.207031 8.734375 8.292969 8.609375 8.375 8.5 C 8.457031 8.390625 8.519531 8.292969 8.625 8.21875 C 8.832031 8.070313 9.121094 8 9.5625 8 Z M 41.6875 8 L 44 8 L 44 10.21875 C 43.589844 10.035156 43.207031 9.902344 42.90625 9.78125 C 42.597656 9.65625 42.394531 9.519531 42.4375 9.5625 C 42.480469 9.605469 42.328125 9.382813 42.1875 9.0625 C 42.0625 8.773438 41.902344 8.394531 41.6875 8 Z M 24 9 C 18.972656 9 15 13.550781 15 19 C 15 24.449219 18.972656 29 24 29 C 29.027344 29 33 24.449219 33 19 C 33 13.550781 29.027344 9 24 9 Z M 24 11 C 27.808594 11 31 14.511719 31 19 C 31 23.488281 27.808594 27 24 27 C 20.191406 27 17 23.488281 17 19 C 17 14.511719 20.191406 11 24 11 Z M 9.5 17 C 8.132813 17 7 18.132813 7 19.5 C 7 20.867188 8.132813 22 9.5 22 C 10.867188 22 12 20.867188 12 19.5 C 12 18.132813 10.867188 17 9.5 17 Z M 38.5 17 C 37.132813 17 36 18.132813 36 19.5 C 36 20.867188 37.132813 22 38.5 22 C 39.867188 22 41 20.867188 41 19.5 C 41 18.132813 39.867188 17 38.5 17 Z M 9.5 19 C 9.789063 19 10 19.210938 10 19.5 C 10 19.789063 9.789063 20 9.5 20 C 9.210938 20 9 19.789063 9 19.5 C 9 19.210938 9.210938 19 9.5 19 Z M 38.5 19 C 38.789063 19 39 19.210938 39 19.5 C 39 19.789063 38.789063 20 38.5 20 C 38.210938 20 38 19.789063 38 19.5 C 38 19.210938 38.210938 19 38.5 19 Z M 4 27.78125 C 4.410156 27.964844 4.792969 28.097656 5.09375 28.21875 C 5.398438 28.34375 5.605469 28.480469 5.5625 28.4375 C 5.519531 28.394531 5.671875 28.617188 5.8125 28.9375 C 5.9375 29.226563 6.097656 29.605469 6.3125 30 L 4 30 Z M 44 27.78125 L 44 30 L 41.6875 30 C 41.902344 29.605469 42.0625 29.226563 42.1875 28.9375 C 42.328125 28.617188 42.480469 28.394531 42.4375 28.4375 C 42.394531 28.480469 42.597656 28.34375 42.90625 28.21875 C 43.207031 28.097656 43.589844 27.964844 44 27.78125 Z M 22 32 L 26 32 L 26 38 L 29.78125 38 L 24 44.4375 L 18.21875 38 L 22 38 Z" fill="#ffffff"/></svg>
