<?xml version="1.0" encoding="UTF-8"?>
<svg id="Layer_1" xmlns="http://www.w3.org/2000/svg" width="143.1" height="158.6" version="1.1" viewBox="0 0 143.1 158.6">
  <!-- Generator: Adobe Illustrator 29.7.1, SVG Export Plug-In . SVG Version: 2.1.1 Build 8)  -->
  <path d="M79.8,92.2c-6,0-11.3-6.1-11.3-12.8s5.5-13.3,11.3-13.2c6.3,0,11.7,6.2,11.6,13.2,0,6.8-5.6,12.9-11.6,12.8Z" fill="#fff"/>
  <path d="M79.7,105.6c-.8-1.7-.2-3.1,1-4.4.8-.2,1.6-.6,2.5-.7,9-1.2,13.7-7,15.3-15.3,1.7-8.4.9-16.5-5.7-23-2.6-2.5-5.7-4-9.3-4.2-2.6,0-4.1-1.2-4.1-3.7s2-3.1,4.2-3.2c4.7-.2,8.8,1.5,12.4,4.4,13.9,11.4,13.1,37.3-1.3,48-3.3,2.4-6.9,3.9-11.1,3.7-1.5,0-3.1,0-3.9-1.6Z" fill="#fff"/>
  <path d="M100.2,115.3c-4.8,3.4-10.2,5.2-16.3,5-2.4,0-4.6-.5-4.6-3.4s2-3.8,4.4-3.9c5.1-.2,9.8-1.6,14-4.5,8.4-6,12.2-14.6,13.2-24.5.7-7.1.3-14.2-2.7-20.8-4.7-10.5-12.5-17-24.2-18.5-.6,0-1.2-.2-1.8-.3-2.2-.5-3.1-2.1-3-4.2,0-2.1,1.8-2.5,3.4-2.6,5.5-.3,10.7,1.2,15.4,3.9,11,6.4,16.8,16.3,19.2,28.6.6,3,.7,5.9.7,8.9-.3,14.9-5.3,27.4-17.7,36.3Z" fill="#fff"/>
  <path d="M127.4,35.4c-10.6-19-26.3-29.8-48.8-29.2-6.6.2-13.2,0-19.8,0s-9.3.8-13.8,2.3c-13.4,4.5-22.4,14-29,25.9C6.7,51.3,3.8,69.7,5.7,89c1.2,13.3,4.9,25.8,12,37.2,7.3,11.8,18.6,21.4,32.4,24.6,4.7,1.1,9.6,1.3,14.4,1.5,6.4.3,12.9.3,19.4-.2,3.3-.4,6.4-.9,9.6-1.6,15.2-3.5,25.7-13.1,33.3-26.2,8.2-14.3,11.4-29.8,11.2-46.2-.2-15.1-3.1-29.5-10.5-42.8h0ZM25.7,41.1c-1.6,4.9-3.3,9.8-4.7,14.8-1.4,5.1-2.2,10.3-2.5,15.6-.3,5.2-.3,10.4,0,15.6.4,5.3,1.4,10.4,2.6,15.6,1.1,4.9,3.9,9.5,4.5,14.5-.5,0-1,.2-1.5.3-8.1-15-9.5-31.4-8.2-48,.8-10.1,2.6-20.2,8.2-29,1-1.3,2.3-.7,1.6.6ZM36,114.8c-3.3-7-5.5-14.3-6.4-22-2-16.1-1.1-32,5.2-47.2.7-1.5,1.2-3.2,2.6-4.3.6-.5,1.3-1,2.5,0-10.4,25.1-10.7,50.5.3,75.9-2.6.6-3.4-1-4.1-2.5h0ZM114.3,127.2c-6.9,8.7-15.7,14.7-27,15.4-12.3.8-21.7-5.5-29.2-14.4-9.4-11-13.5-24.2-14.9-38.4-1.4-14.2,0-28.1,4.9-41.5,4-11.4,11.2-20.4,21-27.3,11.6-8.1,27.8-6.7,38.9,3.3,11.7,10.5,17.3,24.1,19.9,39.2.9,5.2,1.4,10.5,1.3,15.8-.2,17.4-3.9,33.8-15,47.9h0Z" fill="#fff"/>
</svg>